<?xml version="1.0" encoding="UTF-8" standalone="no"?>
<svg
   version="1.2"
   xmlns="http://www.w3.org/2000/svg"
   xmlns:svg="http://www.w3.org/2000/svg"
   id="pdfpc_icon"
   width="512"
   height="512">
  <rect
     id="frame"
     width="480"
     height="480"
     x="16"
     y="16"
     stroke="#000000"
     stroke-width="14"
     fill="#dddddd"
     rx="40"
     ry="40" />
  <g
     transform="translate(221,63)">
    <g
       id="monitor"
       stroke-width="12"
       stroke="#000000">
      <rect
         id="monitor_frame"
         height="160"
         width="230"
         rx="12"
         ry="12"
         fill="#ffffff"
         x="0"
         y="0" />
      <polygon
         id="play_button"
         points="90,112 90,48 145,80"
         fill="#000000"
         style="stroke-linejoin:round" />
      <line
         id="monitor_stand"
         x1="115"
         x2="115"
         y1="164"
         y2="214" />
      <line
         id="monitor_base"
         x1="80"
         x2="150"
         y1="214"
         y2="214"
         style="stroke-linecap:round" />
    </g>
  </g>
  <g
     transform="translate(69,63)">
    <g
       id="pdf_page"
       stroke="#000000"
       stroke-width="12">
      <path
         id="page"
         d="m 0 0 h 130 c 0 0 20 20 40 40 l 0 170 c 0 4 -3 7 -7 7 H 0 c -4 0 -7 -3 -7 -7 V 7 c 0 -4 3 -7 7 -7 z"
         fill="#ffffff" />
      <polygon
         id="page_clip"
         points="130,40 130,0 170,40"
         fill="#dddddd"
         style="stroke-linejoin:round" />
      <text
         id="PDF"
         fill="#d40000"
         font-family="Arial"
         font-size="64px"
         font-weight="bold"
         stroke="none"
         x="15"
         y="105">PDF</text>
      <line
         id="line1"
         x1="20"
         x2="130"
         y1="150"
         y2="150"
         style="stroke-linecap:round" />
      <line
         id="line2"
         x1="20"
         x2="110"
         y1="180"
         y2="180"
         style="stroke-linecap:round" />
    </g>
  </g>
  <text
     id="pdfpc"
     fill="#000000"
     font-family="Arial"
     font-size="144px"
     font-weight="bold"
     x="60"
     y="430">pdfpc</text>
</svg>
