<?xml version="1.0" standalone="no"?>
<!DOCTYPE svg PUBLIC "-//W3C//DTD SVG 1.1//EN" "http://www.w3.org/Graphics/SVG/1.1/DTD/svg11.dtd">
<svg width="100%" height="100%" viewBox="0 0 800 800" version="1.1" xmlns="http://www.w3.org/2000/svg" xmlns:xlink="http://www.w3.org/1999/xlink" xml:space="preserve" style="fill-rule:evenodd;clip-rule:evenodd;stroke-linejoin:round;stroke-miterlimit:1.41421;">
    <g id="Ebene1">
        <g transform="matrix(6.08836,0,0,6.08757,-1388.06,-794.792)">
            <circle cx="293.685" cy="196.267" r="65.165" style="fill:rgb(185,185,185);"/>
        </g>
        <g transform="matrix(1.29538,0,0,1.29538,117.749,32.3418)">
            <path d="M235.111,21.335C223.643,20.582 212.138,20.582 200.67,21.335L177.401,80.201C168.505,81.97 159.734,84.321 151.145,87.237L101.56,47.891C91.252,52.973 81.289,58.726 71.733,65.112L81.015,127.726C74.195,133.706 67.775,140.127 61.794,146.947L-0.82,137.665C-7.206,147.221 -12.958,157.184 -18.041,167.492L21.305,217.077C18.389,225.666 16.039,234.437 14.27,243.333L-44.597,266.602C-45.35,278.07 -45.35,289.575 -44.597,301.043L14.27,324.312C16.039,333.209 18.389,341.979 21.305,350.568L-18.041,400.153C-12.958,410.461 -7.206,420.425 -0.82,429.98L61.794,420.698C67.775,427.518 74.195,433.939 81.015,439.919L71.733,502.534C81.289,508.919 91.252,514.672 101.56,519.754L151.145,480.409C159.734,483.325 168.505,485.675 177.401,487.444L200.67,546.311C212.138,547.063 223.643,547.063 235.111,546.311L258.38,487.444C267.277,485.675 276.047,483.325 284.636,480.409L334.221,519.754C344.529,514.672 354.493,508.919 364.048,502.534L354.766,439.919C361.586,433.939 368.007,427.518 373.987,420.698L436.602,429.98C442.987,420.425 448.74,410.461 453.822,400.153L414.477,350.568C417.393,341.979 419.743,333.209 421.512,324.312L480.379,301.043C481.131,289.575 481.131,278.07 480.379,266.602L421.512,243.333C419.743,234.437 417.393,225.666 414.477,217.077L453.822,167.492C448.74,157.184 442.987,147.221 436.602,137.665L373.987,146.947C368.007,140.127 361.586,133.706 354.766,127.726L364.048,65.112C354.493,58.726 344.529,52.973 334.221,47.891L284.636,87.237C276.047,84.321 267.277,81.97 258.38,80.201L235.111,21.335ZM217.891,161.899C285.182,161.899 339.815,216.531 339.815,283.823C339.815,351.114 285.182,405.747 217.891,405.747C150.599,405.747 95.967,351.114 95.967,283.823C95.967,216.531 150.599,161.899 217.891,161.899Z" style="fill:white;"/>
        </g>
    </g>
</svg>
