<?xml version="1.0" encoding="UTF-8" standalone="no"?>
<!-- Created with Inkscape (http://www.inkscape.org/) -->

<svg
   xmlns:dc="http://purl.org/dc/elements/1.1/"
   xmlns:cc="http://creativecommons.org/ns#"
   xmlns:rdf="http://www.w3.org/1999/02/22-rdf-syntax-ns#"
   xmlns:svg="http://www.w3.org/2000/svg"
   xmlns="http://www.w3.org/2000/svg"
   xmlns:xlink="http://www.w3.org/1999/xlink"
   xmlns:sodipodi="http://sodipodi.sourceforge.net/DTD/sodipodi-0.dtd"
   xmlns:inkscape="http://www.inkscape.org/namespaces/inkscape"
   width="64px"
   height="64px"
   id="svg3891"
   version="1.1"
   inkscape:version="0.47 r22583"
   sodipodi:docname="Nowy dokument 9">
  <defs
     id="defs3893">
    <linearGradient
       inkscape:collect="always"
       id="linearGradient4486">
      <stop
         style="stop-color:#ffffff;stop-opacity:1;"
         offset="0"
         id="stop4488" />
      <stop
         style="stop-color:#ffffff;stop-opacity:0;"
         offset="1"
         id="stop4490" />
    </linearGradient>
    <inkscape:perspective
       sodipodi:type="inkscape:persp3d"
       inkscape:vp_x="0 : 32 : 1"
       inkscape:vp_y="0 : 1000 : 0"
       inkscape:vp_z="64 : 32 : 1"
       inkscape:persp3d-origin="32 : 21.333333 : 1"
       id="perspective3899" />
    <inkscape:perspective
       id="perspective3880"
       inkscape:persp3d-origin="0.5 : 0.33333333 : 1"
       inkscape:vp_z="1 : 0.5 : 1"
       inkscape:vp_y="0 : 1000 : 0"
       inkscape:vp_x="0 : 0.5 : 1"
       sodipodi:type="inkscape:persp3d" />
    <radialGradient
       inkscape:collect="always"
       xlink:href="#linearGradient3637"
       id="radialGradient3805"
       gradientUnits="userSpaceOnUse"
       gradientTransform="matrix(1,0,0,0.87170767,-6.0609152,77.670745)"
       cx="388.40625"
       cy="487.3125"
       fx="388.40625"
       fy="487.3125"
       r="267.21201" />
    <linearGradient
       id="linearGradient3637">
      <stop
         style="stop-color:#94deec;stop-opacity:1;"
         offset="0"
         id="stop3639" />
      <stop
         id="stop4438"
         offset="0"
         style="stop-color:#7eeefe;stop-opacity:1;" />
      <stop
         id="stop4436"
         offset="0.625"
         style="stop-color:#3f98cb;stop-opacity:1;" />
      <stop
         style="stop-color:#49bacd;stop-opacity:1;"
         offset="1"
         id="stop3641" />
    </linearGradient>
    <radialGradient
       inkscape:collect="always"
       xlink:href="#linearGradient3637"
       id="radialGradient3924"
       gradientUnits="userSpaceOnUse"
       gradientTransform="matrix(0.11583039,0,0,0.10097024,-12.727388,-16.889224)"
       cx="388.40625"
       cy="487.3125"
       fx="388.40625"
       fy="487.3125"
       r="267.21201" />
    <inkscape:perspective
       id="perspective4448"
       inkscape:persp3d-origin="0.5 : 0.33333333 : 1"
       inkscape:vp_z="1 : 0.5 : 1"
       inkscape:vp_y="0 : 1000 : 0"
       inkscape:vp_x="0 : 0.5 : 1"
       sodipodi:type="inkscape:persp3d" />
    <radialGradient
       inkscape:collect="always"
       xlink:href="#linearGradient3637-9"
       id="radialGradient3924-0"
       gradientUnits="userSpaceOnUse"
       gradientTransform="matrix(0.11583039,0,0,0.10097024,-12.727388,-16.889224)"
       cx="388.40625"
       cy="487.3125"
       fx="388.40625"
       fy="487.3125"
       r="267.21201" />
    <linearGradient
       id="linearGradient3637-9">
      <stop
         style="stop-color:#94deec;stop-opacity:1;"
         offset="0"
         id="stop3639-9" />
      <stop
         id="stop4438-1"
         offset="0"
         style="stop-color:#7eeefe;stop-opacity:1;" />
      <stop
         id="stop4436-3"
         offset="0.625"
         style="stop-color:#3f98cb;stop-opacity:1;" />
      <stop
         style="stop-color:#49bacd;stop-opacity:1;"
         offset="1"
         id="stop3641-4" />
    </linearGradient>
    <linearGradient
       inkscape:collect="always"
       xlink:href="#linearGradient4486"
       id="linearGradient4492"
       x1="32.75"
       y1="3.8750002"
       x2="32"
       y2="45"
       gradientUnits="userSpaceOnUse"
       gradientTransform="translate(0.1875,-0.1875)" />
  </defs>
  <sodipodi:namedview
     id="base"
     pagecolor="#ffffff"
     bordercolor="#666666"
     borderopacity="1.0"
     inkscape:pageopacity="0.0"
     inkscape:pageshadow="2"
     inkscape:zoom="11.313709"
     inkscape:cx="22.280903"
     inkscape:cy="37.243362"
     inkscape:current-layer="layer1"
     showgrid="true"
     inkscape:document-units="px"
     inkscape:grid-bbox="true"
     showguides="true"
     inkscape:guide-bbox="true"
     inkscape:window-width="1590"
     inkscape:window-height="1124"
     inkscape:window-x="0"
     inkscape:window-y="24"
     inkscape:window-maximized="1" />
  <metadata
     id="metadata3896">
    <rdf:RDF>
      <cc:Work
         rdf:about="">
        <dc:format>image/svg+xml</dc:format>
        <dc:type
           rdf:resource="http://purl.org/dc/dcmitype/StillImage" />
        <dc:title></dc:title>
      </cc:Work>
    </rdf:RDF>
  </metadata>
  <g
     id="layer1"
     inkscape:label="Layer 1"
     inkscape:groupmode="layer">
    <g
       id="g4494">
      <path
         id="rect2830"
         d="m 16.896234,5.6557462 -1.256036,2.7473521 3.648657,6.3417137 -6.645769,-0.0181 -1.462358,2.859562 1.292232,2.258693 9.910738,0.275097 5.635873,9.784048 -11.202971,0.0072 -4.69475,-8.223958 -3.2360119,-0.0036 -1.1365857,2.349185 3.3627006,5.849435 -7.8981843,0 -1.5818088,2.635141 1.5818088,2.754592 7.4312433,0 -3.2179129,5.089298 1.3429086,2.722014 3.0333083,0.03982 4.720088,-7.851128 11.383956,0 -5.320959,9.237473 -9.469134,-0.03982 -1.618006,2.801647 1.462359,2.157341 6.75074,0.0072 -3.949092,6.844852 1.491316,2.685817 3.174476,0.0072 3.717432,-6.439445 2.798028,5.331817 3.029688,0.199084 1.552852,-2.609804 -4.444992,-8.014015 5.523662,-9.574105 5.150833,8.944277 -4.788863,8.169663 1.610766,2.808887 2.598945,-0.188225 3.395278,-5.831336 3.938233,6.848472 3.073125,0.05792 1.599908,-2.743732 -3.706573,-6.443066 6.015941,0.253379 1.6904,-2.52293 -1.476838,-2.649621 -9.161459,-0.177365 -5.244945,-9.121643 10.670874,0 4.528245,7.865607 2.830605,-0.02172 1.592668,-2.493973 -2.986253,-5.349916 7.199583,0 1.755554,-2.928337 -1.755554,-2.461396 -7.315413,0.0036 3.326504,-5.755323 -1.748315,-2.689436 -2.602564,-0.0072 -5.176171,8.455619 -10.413876,0.0072 5.592436,-9.689936 9.078207,0.0072 1.393585,-2.461395 L 51.909589,15.1285 45.781437,15.038008 49.379419,8.8012653 47.721596,5.8186327 44.713626,6.1082087 41.061349,12.449923 37.738464,6.6909803 34.53503,6.8611062 33.228319,9.1125594 37.962886,17.821557 32.60935,27.113326 26.872126,17.133814 31.436567,9.2826853 30.006786,6.8430077 27.053111,6.7054591 23.896733,11.961263 20.30961,5.7172811 16.896234,5.6557462 z"
         style="fill:url(#radialGradient3924);fill-opacity:1;stroke:#000000;stroke-width:0.64274281;stroke-miterlimit:4;stroke-opacity:1;stroke-dasharray:none" />
      <path
         sodipodi:nodetypes="ccccccccccccccccccccccccccccccccccccccccccccccccccccccccccccccccccccccccccccccccccccccc"
         id="rect2830-7"
         d="m 17.72238,4.2536692 -0.985777,2.3479098 3.708706,6.692768 -6.942776,-0.01792 -1.312582,2.541748 1.145442,1.946811 9.943585,0.396486 5.95061,10.26658 -11.916387,0.04854 -4.61233,-8.225479 -2.8896245,-0.04494 -1.075264,2.03641 3.5518745,6.163982 -8.2559412,0 -1.3471989,2.485015 1.3885666,2.355076 7.7971965,0.08274 -3.3682594,5.204512 1.1952295,2.529662 2.6491119,-0.0019 4.67859,-7.856334 12.052827,0 -5.475752,9.80814 -9.633838,0.04331 -1.382761,2.484405 1.229846,1.846461 7.12864,-0.0342 -4.086601,7.14957 1.382397,2.411086 2.663698,-0.0342 3.983113,-6.706806 2.997114,5.568741 2.645555,0.197118 1.31875,-2.294456 -4.532428,-7.934875 6.04721,-10.224183 5.515452,9.683311 -4.828893,8.006249 1.458383,2.408837 2.056902,-0.06226 3.625247,-6.146063 4.15867,7.029051 2.729598,0.09871 1.489083,-2.427063 -4.013812,-6.669014 6.448109,0.250877 1.329779,-2.20844 -1.45091,-2.623455 -8.752414,0.196699 -5.649281,-9.77619 11.435002,-0.08273 4.448747,7.787933 2.57407,0.01986 1.3165,-2.179769 -3.223401,-5.628027 7.693706,-0.04137 1.435158,-2.527109 -1.559263,-2.106143 -7.476559,-0.07916 3.350841,-5.988064 -1.510783,-2.414668 -2.22593,-0.04854 -5.209401,8.454854 -11.182515,0.172642 6.03204,-10.504341 8.960198,0.04854 1.286382,-2.188882 -1.295745,-2.267423 -6.268774,-0.0896 L 49.67666,7.0371962 48.29615,4.4149607 45.547828,4.6189403 41.794198,11.228974 38.157337,5.3200617 35.423823,5.488508 34.305524,7.3040544 39.039708,16.051152 33.242373,25.995786 27.150824,15.411569 31.800605,7.5138672 30.561396,5.4705937 27.907784,5.2930349 24.558611,10.786515 20.951727,4.3559833 l -3.270715,-0.060927 0,-2.08e-5 0.04137,-0.041366 z"
         style="fill:none;stroke:none" />
      <path
         id="rect2830-5"
         d="m 17.009376,5.93471 -1.068536,2.434855 3.929907,6.716714 -6.989519,-0.0181 -1.399859,2.515811 1.198483,1.914943 9.879488,0.275097 6.010873,10.440298 -11.952971,-0.02405 -4.6635,-8.192708 -2.7672632,-0.03485 -1.105335,2.067935 3.5502002,6.130685 -8.2419342,0.0625 -1.394309,2.322641 1.488059,2.348342 7.7124932,0 -3.8429132,5.464298 1.342909,2.722014 3.0333092,0.03982 4.595088,-8.194878 12.102706,0.0625 -5.914709,9.518723 -9.469134,-0.03982 -1.618006,2.801647 1.462359,2.157341 6.75074,0.0072 -3.949092,6.844852 1.491316,2.685817 3.174476,0.0072 3.717432,-6.439445 2.798028,5.331817 3.029688,0.199084 1.552852,-2.609804 -4.444992,-8.014015 5.523662,-9.574105 5.150833,8.944277 -4.788863,8.169663 1.610766,2.808887 2.598945,-0.188225 3.395278,-5.831336 3.938233,6.848472 3.073125,0.05792 1.599908,-2.743732 -3.706573,-6.443066 6.015941,0.253379 1.6904,-2.52293 -1.476838,-2.649621 -9.161459,-0.177365 -5.713695,-9.465393 11.358374,0.03125 4.309495,8.178107 2.830605,-0.02172 1.592668,-2.493973 -3.486253,-5.693666 7.668333,0.03125 1.443054,-2.615837 -1.505554,-2.148896 -7.690413,0.0036 3.451504,-6.036573 -1.498315,-2.408186 -2.258814,0.02405 -5.113671,8.424369 -11.226376,-0.02405 5.936186,-10.283686 9.140707,0.0697 1.174835,-2.273895 -1.142257,-2.217876 -6.471902,-0.15299 3.738607,-6.517993 -1.485948,-2.654508 -2.63297,0.242701 -3.777277,6.716715 L 37.585981,7.016824 34.741922,7.140075 33.607086,9.110278 38.291637,17.8349 32.62338,27.59718 26.444215,17.087338 31.049709,9.374154 29.776178,7.121976 27.228753,7.015678 23.822375,12.583982 20.141502,5.99625 17.009376,5.93471 z"
         style="fill:url(#linearGradient4492);fill-opacity:1;stroke:none"
         sodipodi:nodetypes="ccccccccccccccccccccccccccccccccccccccccccccccccccccccccccccccccccccccccccccccccccccc" />
    </g>
  </g>
</svg>
